<svg id="Layer_1" data-name="Layer 1" xmlns="http://www.w3.org/2000/svg" viewBox="0 0 326.05 326.05"><defs><style>.cls-1{fill:#fff;}</style></defs><title>delivery-trucksvg</title><path class="cls-1" d="M736.63,419.64V261.38h326v326h-326V427.27c1.88,4.4,5.41,5.67,9.94,5.64,14.82-.11,29.65,0,44.47,0h43.21c3,0,6.06-.27,7.88-3.1,2.36-3.67,2.14-7.77.7-11.58s-4.81-4.3-8.43-4.3q-44.16.06-88.31,0C741.56,413.84,738.34,415.35,736.63,419.64Zm290.89,77.26c5.87,0,12.33.35,18.74-.08,9.79-.65,15.71-7.35,15.77-17.22s.13-19.7,0-29.54a111.73,111.73,0,0,0-1.2-13.9c-1-7.24-4.74-12.3-12.33-13.89-3.1-.65-6.11-1.7-9.18-2.49-7.52-1.94-12.94-6.14-16.17-13.45-3.45-7.83-7.43-15.44-11.32-23.07-5.51-10.77-14.38-16.31-26.5-16.48-5.08-.08-10.17,0-15.25,0-3.77,0-4.43-.67-4.44-4.46,0-6.78,0-13.56,0-20.34-.11-12.08-5.71-17.61-17.83-17.62q-75,0-150,.05a52,52,0,0,0-11.32,1.27c-8.75,2-13.26,7.85-13.37,16.8-.05,3.39,0,6.78,0,10.17,0,6.26,1,7.25,7.1,7.25q41,0,82,0c7.4,0,13.21,3.73,14.81,10.12,2.07,8.25,1,16-5.21,20.52-3.27,2.36-7,2.87-10.84,2.87h-82c-4.78,0-5.78,1-5.85,5.75,0,.85,0,1.7,0,2.54,0,2.83,1.53,4.29,4.18,4.66a29.78,29.78,0,0,0,4.12.22c17.47,0,35,0,52.42,0a24.8,24.8,0,0,1,6.89.79c7.84,2.3,11.56,9.72,10.15,19.79A14.35,14.35,0,0,1,836.28,440c-14.82.11-29.65,0-44.48,0-4,0-8-.09-12.07,0-4.6.14-6.59,1.87-6.62,5.92-.09,11.33-.24,22.67,0,34,.25,10.06,6.52,16.26,16.54,16.92,2.74.19,5.51,0,8.26.06,2,0,3.11-.82,3.19-3a35.44,35.44,0,0,1,.67-6c3.75-18.11,20.25-31.11,38-30,19.43,1.22,33.94,15.3,35.6,34.52.38,4.46.38,4.46,4.76,4.46,22.56,0,45.12,0,67.68.06,2.95,0,4-.79,4.21-3.86a37,37,0,0,1,70.65-13.56C1025,484.85,1025.84,490.71,1027.52,496.9ZM812.93,386h17.14c10.69,0,21.38,0,32.07,0,4,0,6.8-1.8,7.84-4.77,3-8.47-1-14.17-9.85-14.17H793.45c-9.63,0-19.26,0-28.89,0-3,0-6,.39-7.74,3.35a12.81,12.81,0,0,0-.43,11.59c1.44,3.5,4.78,4,8.28,4C780.75,386,796.84,386,812.93,386ZM1017.6,495.38a28.56,28.56,0,1,0-57.12-.15,28.56,28.56,0,0,0,57.12.15Zm-150.71-.09a28.58,28.58,0,0,0-57.15-.29c-.22,15.54,13,28.83,28.6,28.81A28.85,28.85,0,0,0,866.89,495.29Z" transform="translate(-736.63 -261.38)"/><path d="M736.63,419.64c1.71-4.29,4.93-5.8,9.46-5.79q44.16.15,88.31,0c3.62,0,7.05.62,8.43,4.3s1.66,7.91-.7,11.58c-1.82,2.83-4.85,3.1-7.88,3.1H791c-14.82,0-29.65-.07-44.47,0-4.53,0-8.06-1.24-9.94-5.64Z" transform="translate(-736.63 -261.38)"/><path d="M1027.52,496.9c-1.68-6.19-2.51-12-4.82-17.27a37,37,0,0,0-70.65,13.56c-.16,3.07-1.26,3.87-4.21,3.86-22.56-.1-45.12-.06-67.68-.06-4.38,0-4.38,0-4.76-4.46-1.66-19.22-16.17-33.3-35.6-34.52-17.74-1.11-34.24,11.89-38,30a35.44,35.44,0,0,0-.67,6c-.08,2.17-1.14,3-3.19,3-2.75,0-5.52.13-8.26-.06-10-.66-16.29-6.86-16.54-16.92-.28-11.33-.13-22.67,0-34,0-4.05,2-5.78,6.62-5.92,4-.13,8,0,12.07,0,14.83,0,29.66.07,44.48,0a14.35,14.35,0,0,0,14.56-12.82c1.41-10.07-2.31-17.49-10.15-19.79a24.8,24.8,0,0,0-6.89-.79c-17.47-.06-34.95,0-52.42,0a29.78,29.78,0,0,1-4.12-.22c-2.65-.37-4.21-1.83-4.18-4.66,0-.84,0-1.69,0-2.54.07-4.74,1.07-5.75,5.85-5.75h82c3.87,0,7.57-.51,10.84-2.87,6.2-4.48,7.28-12.27,5.21-20.52-1.6-6.39-7.41-10.11-14.81-10.12q-41,0-82,0c-6.13,0-7.09-1-7.1-7.25,0-3.39,0-6.78,0-10.17.11-8.95,4.62-14.81,13.37-16.8a52,52,0,0,1,11.32-1.27q75-.12,150-.05c12.12,0,17.72,5.54,17.83,17.62,0,6.78,0,13.56,0,20.34,0,3.79.67,4.44,4.44,4.46,5.08,0,10.17-.06,15.25,0,12.12.17,21,5.71,26.5,16.48,3.89,7.63,7.87,15.24,11.32,23.07,3.23,7.31,8.65,11.51,16.17,13.45,3.07.79,6.08,1.84,9.18,2.49,7.59,1.59,11.28,6.65,12.33,13.89a111.73,111.73,0,0,1,1.2,13.9c.18,9.84.1,19.69,0,29.54s-6,16.57-15.77,17.22C1039.85,497.25,1033.39,496.9,1027.52,496.9Zm-11-77.44c-4.67-9.37-9-18.18-13.42-26.93-4.67-9.21-12.31-14-22.57-14.44-3.7-.18-7.41.05-11.11-.06-2.76-.09-3.95.78-3.91,3.81.16,11.33.06,22.66.07,34,0,3.67.49,4.15,4.27,4.16q21.28,0,42.57,0A34.48,34.48,0,0,0,1016.52,419.46Z" transform="translate(-736.63 -261.38)"/><path d="M812.93,386c-16.09,0-32.18,0-48.26,0-3.5,0-6.84-.52-8.28-4a12.81,12.81,0,0,1,.43-11.59c1.7-3,4.7-3.35,7.74-3.35,9.63,0,19.26,0,28.89,0h66.68c8.85,0,12.81,5.7,9.85,14.17-1,3-3.85,4.75-7.84,4.77-10.69,0-21.38,0-32.07,0Z" transform="translate(-736.63 -261.38)"/><path d="M1017.6,495.38a28.56,28.56,0,1,1-28.29-28.7A28.72,28.72,0,0,1,1017.6,495.38Zm-28.88,12.17a12.36,12.36,0,1,0,.73-24.71,12.36,12.36,0,0,0-.73,24.71Z" transform="translate(-736.63 -261.38)"/><path d="M866.89,495.29a28.85,28.85,0,0,1-28.55,28.52c-15.63,0-28.82-13.27-28.6-28.81a28.58,28.58,0,0,1,57.15.29Zm-28.53,12.27a12.37,12.37,0,0,0,.08-24.74,12.44,12.44,0,0,0-12.5,12.52A12.29,12.29,0,0,0,838.36,507.56Z" transform="translate(-736.63 -261.38)"/><path class="cls-1" d="M1016.52,419.46a34.48,34.48,0,0,1-4.1.51q-21.28.06-42.57,0c-3.78,0-4.26-.49-4.27-4.16,0-11.33.09-22.66-.07-34,0-3,1.15-3.9,3.91-3.81,3.7.11,7.41-.12,11.11.06,10.26.48,17.9,5.23,22.57,14.44C1007.54,401.28,1011.85,410.09,1016.52,419.46Z" transform="translate(-736.63 -261.38)"/><path class="cls-1" d="M988.72,507.55a12.36,12.36,0,0,1,.73-24.71,12.36,12.36,0,1,1-.73,24.71Z" transform="translate(-736.63 -261.38)"/><path class="cls-1" d="M838.36,507.56a12.29,12.29,0,0,1-12.42-12.22,12.38,12.38,0,1,1,24.76-.08A12.29,12.29,0,0,1,838.36,507.56Z" transform="translate(-736.63 -261.38)"/></svg>